<mxfile host="app.diagrams.net" modified="2024-06-01T20:03:20.281Z" agent="Mozilla/5.0 (Windows NT 10.0; Win64; x64) AppleWebKit/537.36 (KHTML, like Gecko) Chrome/125.0.0.0 Safari/537.36" etag="52_zwVrGXyu4l473aF4W" version="24.4.13" type="device">
  <diagram name="Страница — 1" id="kZF4vLp_Y_fiBsRd3PuI">
    <mxGraphModel dx="1843" dy="757" grid="1" gridSize="10" guides="1" tooltips="1" connect="1" arrows="1" fold="1" page="1" pageScale="1" pageWidth="827" pageHeight="1169" math="0" shadow="0">
      <root>
        <mxCell id="0" />
        <mxCell id="1" parent="0" />
        <mxCell id="ML4pTHdLRo7F1oKbEQ7r-1" value="Car" style="swimlane;fontStyle=1;align=center;verticalAlign=top;childLayout=stackLayout;horizontal=1;startSize=26;horizontalStack=0;resizeParent=1;resizeParentMax=0;resizeLast=0;collapsible=1;marginBottom=0;whiteSpace=wrap;html=1;" parent="1" vertex="1">
          <mxGeometry x="310" y="40" width="190" height="250" as="geometry" />
        </mxCell>
        <mxCell id="ML4pTHdLRo7F1oKbEQ7r-2" value="- brand: str&lt;div&gt;- model: str&lt;/div&gt;&lt;div&gt;- year: int&lt;/div&gt;&lt;div&gt;- price: float&lt;/div&gt;&lt;div&gt;- status: str&lt;/div&gt;" style="text;strokeColor=none;fillColor=none;align=left;verticalAlign=top;spacingLeft=4;spacingRight=4;overflow=hidden;rotatable=0;points=[[0,0.5],[1,0.5]];portConstraint=eastwest;whiteSpace=wrap;html=1;" parent="ML4pTHdLRo7F1oKbEQ7r-1" vertex="1">
          <mxGeometry y="26" width="190" height="84" as="geometry" />
        </mxCell>
        <mxCell id="ML4pTHdLRo7F1oKbEQ7r-3" value="" style="line;strokeWidth=1;fillColor=none;align=left;verticalAlign=middle;spacingTop=-1;spacingLeft=3;spacingRight=3;rotatable=0;labelPosition=right;points=[];portConstraint=eastwest;strokeColor=inherit;" parent="ML4pTHdLRo7F1oKbEQ7r-1" vertex="1">
          <mxGeometry y="110" width="190" height="8" as="geometry" />
        </mxCell>
        <mxCell id="ML4pTHdLRo7F1oKbEQ7r-4" value="+ get_brand(): str&lt;div&gt;+ get_model(): str&lt;/div&gt;&lt;div&gt;+ get_year(): int&lt;/div&gt;&lt;div&gt;+ get_price(): float&lt;/div&gt;&lt;div&gt;+ get_status(): str&lt;/div&gt;&lt;div&gt;- set_status(status: str): None&lt;/div&gt;&lt;div&gt;- set_price(price: float): None&lt;br&gt;+ __str__(): str&lt;/div&gt;" style="text;strokeColor=none;fillColor=none;align=left;verticalAlign=top;spacingLeft=4;spacingRight=4;overflow=hidden;rotatable=0;points=[[0,0.5],[1,0.5]];portConstraint=eastwest;whiteSpace=wrap;html=1;" parent="ML4pTHdLRo7F1oKbEQ7r-1" vertex="1">
          <mxGeometry y="118" width="190" height="132" as="geometry" />
        </mxCell>
        <mxCell id="ML4pTHdLRo7F1oKbEQ7r-7" value="Salesperson" style="swimlane;fontStyle=1;align=center;verticalAlign=top;childLayout=stackLayout;horizontal=1;startSize=26;horizontalStack=0;resizeParent=1;resizeParentMax=0;resizeLast=0;collapsible=1;marginBottom=0;whiteSpace=wrap;html=1;" parent="1" vertex="1">
          <mxGeometry x="40" y="40" width="200" height="200" as="geometry" />
        </mxCell>
        <mxCell id="ML4pTHdLRo7F1oKbEQ7r-8" value="- name: str&lt;div&gt;- experience: int&lt;/div&gt;&lt;div&gt;- solds_cars: list[Car]&lt;/div&gt;" style="text;strokeColor=none;fillColor=none;align=left;verticalAlign=top;spacingLeft=4;spacingRight=4;overflow=hidden;rotatable=0;points=[[0,0.5],[1,0.5]];portConstraint=eastwest;whiteSpace=wrap;html=1;" parent="ML4pTHdLRo7F1oKbEQ7r-7" vertex="1">
          <mxGeometry y="26" width="200" height="64" as="geometry" />
        </mxCell>
        <mxCell id="ML4pTHdLRo7F1oKbEQ7r-9" value="" style="line;strokeWidth=1;fillColor=none;align=left;verticalAlign=middle;spacingTop=-1;spacingLeft=3;spacingRight=3;rotatable=0;labelPosition=right;points=[];portConstraint=eastwest;strokeColor=inherit;" parent="ML4pTHdLRo7F1oKbEQ7r-7" vertex="1">
          <mxGeometry y="90" width="200" height="8" as="geometry" />
        </mxCell>
        <mxCell id="ML4pTHdLRo7F1oKbEQ7r-10" value="+ get_name(): str&lt;div&gt;+ get_experience(): int&lt;/div&gt;&lt;div&gt;+ get_sold_cars(): str&lt;/div&gt;&lt;div&gt;+ add_sold_car(car: Car): None&lt;/div&gt;&lt;div&gt;+ remove_sold_car(car: Car): None&lt;br&gt;+ __str__(): str&lt;/div&gt;" style="text;strokeColor=none;fillColor=none;align=left;verticalAlign=top;spacingLeft=4;spacingRight=4;overflow=hidden;rotatable=0;points=[[0,0.5],[1,0.5]];portConstraint=eastwest;whiteSpace=wrap;html=1;" parent="ML4pTHdLRo7F1oKbEQ7r-7" vertex="1">
          <mxGeometry y="98" width="200" height="102" as="geometry" />
        </mxCell>
        <mxCell id="ML4pTHdLRo7F1oKbEQ7r-11" value="Customer" style="swimlane;fontStyle=1;align=center;verticalAlign=top;childLayout=stackLayout;horizontal=1;startSize=26;horizontalStack=0;resizeParent=1;resizeParentMax=0;resizeLast=0;collapsible=1;marginBottom=0;whiteSpace=wrap;html=1;" parent="1" vertex="1">
          <mxGeometry x="590" y="40" width="200" height="210" as="geometry" />
        </mxCell>
        <mxCell id="ML4pTHdLRo7F1oKbEQ7r-12" value="- name: str&lt;div&gt;- phone_num: int&lt;/div&gt;&lt;div&gt;- email: str&lt;/div&gt;&lt;div&gt;- cars: list[Car]&lt;/div&gt;" style="text;strokeColor=none;fillColor=none;align=left;verticalAlign=top;spacingLeft=4;spacingRight=4;overflow=hidden;rotatable=0;points=[[0,0.5],[1,0.5]];portConstraint=eastwest;whiteSpace=wrap;html=1;" parent="ML4pTHdLRo7F1oKbEQ7r-11" vertex="1">
          <mxGeometry y="26" width="200" height="64" as="geometry" />
        </mxCell>
        <mxCell id="ML4pTHdLRo7F1oKbEQ7r-13" value="" style="line;strokeWidth=1;fillColor=none;align=left;verticalAlign=middle;spacingTop=-1;spacingLeft=3;spacingRight=3;rotatable=0;labelPosition=right;points=[];portConstraint=eastwest;strokeColor=inherit;" parent="ML4pTHdLRo7F1oKbEQ7r-11" vertex="1">
          <mxGeometry y="90" width="200" height="8" as="geometry" />
        </mxCell>
        <mxCell id="ML4pTHdLRo7F1oKbEQ7r-14" value="+ get_name(): str&lt;div&gt;+ get_phone_num(): int&lt;/div&gt;&lt;div&gt;+ get_email(): str&lt;/div&gt;&lt;div&gt;+ get_cars(): str&lt;/div&gt;&lt;div&gt;+ add_car(car: Car): None&lt;/div&gt;&lt;div&gt;+ remove_car(car: Car): None&lt;br&gt;+ __str__(): str&lt;/div&gt;" style="text;strokeColor=none;fillColor=none;align=left;verticalAlign=top;spacingLeft=4;spacingRight=4;overflow=hidden;rotatable=0;points=[[0,0.5],[1,0.5]];portConstraint=eastwest;whiteSpace=wrap;html=1;" parent="ML4pTHdLRo7F1oKbEQ7r-11" vertex="1">
          <mxGeometry y="98" width="200" height="112" as="geometry" />
        </mxCell>
        <mxCell id="ML4pTHdLRo7F1oKbEQ7r-15" value="Dealership" style="swimlane;fontStyle=1;align=center;verticalAlign=top;childLayout=stackLayout;horizontal=1;startSize=26;horizontalStack=0;resizeParent=1;resizeParentMax=0;resizeLast=0;collapsible=1;marginBottom=0;whiteSpace=wrap;html=1;" parent="1" vertex="1">
          <mxGeometry x="204" y="390" width="420" height="280" as="geometry" />
        </mxCell>
        <mxCell id="ML4pTHdLRo7F1oKbEQ7r-16" value="- cars: list[Car]&lt;div&gt;- salespersons: list[Salesperson]&lt;/div&gt;&lt;div&gt;- customers: list[Customer]&lt;/div&gt;" style="text;strokeColor=none;fillColor=none;align=left;verticalAlign=top;spacingLeft=4;spacingRight=4;overflow=hidden;rotatable=0;points=[[0,0.5],[1,0.5]];portConstraint=eastwest;whiteSpace=wrap;html=1;" parent="ML4pTHdLRo7F1oKbEQ7r-15" vertex="1">
          <mxGeometry y="26" width="420" height="54" as="geometry" />
        </mxCell>
        <mxCell id="ML4pTHdLRo7F1oKbEQ7r-17" value="" style="line;strokeWidth=1;fillColor=none;align=left;verticalAlign=middle;spacingTop=-1;spacingLeft=3;spacingRight=3;rotatable=0;labelPosition=right;points=[];portConstraint=eastwest;strokeColor=inherit;" parent="ML4pTHdLRo7F1oKbEQ7r-15" vertex="1">
          <mxGeometry y="80" width="420" height="8" as="geometry" />
        </mxCell>
        <mxCell id="ML4pTHdLRo7F1oKbEQ7r-18" value="+ get_cars(): str&lt;div&gt;+ get_salespersons(): int&lt;/div&gt;&lt;div&gt;+ get_customers(): str&lt;/div&gt;&lt;div&gt;+ add_car(car: Car): None&lt;/div&gt;&lt;div&gt;+ sell_car(car: Car, salesperson: Salesperson, customer: Customer): None&lt;/div&gt;&lt;div&gt;+ add_saleperson(salesperson: Salesperson): None&lt;/div&gt;&lt;div&gt;+ remove_saleperson(salesperson: Salesperson): None&lt;/div&gt;&lt;div&gt;+ add_customer(customer: Customer): None&lt;/div&gt;&lt;div&gt;+ set_car_price(car: Car, price: float)&lt;/div&gt;&lt;div&gt;+ set_car_status(car: Car, status: str)&lt;/div&gt;&lt;div&gt;+ __str__(): str&lt;/div&gt;" style="text;strokeColor=none;fillColor=none;align=left;verticalAlign=top;spacingLeft=4;spacingRight=4;overflow=hidden;rotatable=0;points=[[0,0.5],[1,0.5]];portConstraint=eastwest;whiteSpace=wrap;html=1;" parent="ML4pTHdLRo7F1oKbEQ7r-15" vertex="1">
          <mxGeometry y="88" width="420" height="192" as="geometry" />
        </mxCell>
        <mxCell id="zeNMsyUqRh3NsVoOt58o-7" value="" style="endArrow=open;html=1;endSize=12;startArrow=diamondThin;startSize=14;startFill=0;edgeStyle=orthogonalEdgeStyle;align=left;verticalAlign=bottom;rounded=0;entryX=0.999;entryY=0.336;entryDx=0;entryDy=0;entryPerimeter=0;exitX=-0.017;exitY=0.575;exitDx=0;exitDy=0;exitPerimeter=0;" edge="1" parent="1" source="ML4pTHdLRo7F1oKbEQ7r-14" target="ML4pTHdLRo7F1oKbEQ7r-4">
          <mxGeometry x="-1" y="3" relative="1" as="geometry">
            <mxPoint x="580" y="202" as="sourcePoint" />
            <mxPoint x="320" y="234" as="targetPoint" />
            <Array as="points">
              <mxPoint x="570" y="202" />
              <mxPoint x="570" y="200" />
              <mxPoint x="550" y="200" />
              <mxPoint x="550" y="202" />
            </Array>
          </mxGeometry>
        </mxCell>
        <mxCell id="zeNMsyUqRh3NsVoOt58o-8" value="" style="endArrow=open;html=1;endSize=12;startArrow=diamondThin;startSize=14;startFill=0;edgeStyle=orthogonalEdgeStyle;align=left;verticalAlign=bottom;rounded=0;exitX=1.018;exitY=0.889;exitDx=0;exitDy=0;exitPerimeter=0;entryX=0;entryY=0.5;entryDx=0;entryDy=0;" edge="1" parent="1" source="ML4pTHdLRo7F1oKbEQ7r-10" target="ML4pTHdLRo7F1oKbEQ7r-4">
          <mxGeometry x="-1" y="3" relative="1" as="geometry">
            <mxPoint x="280" y="270" as="sourcePoint" />
            <mxPoint x="440" y="270" as="targetPoint" />
          </mxGeometry>
        </mxCell>
        <mxCell id="zeNMsyUqRh3NsVoOt58o-9" value="" style="endArrow=open;html=1;endSize=12;startArrow=diamondThin;startSize=14;startFill=0;edgeStyle=orthogonalEdgeStyle;align=left;verticalAlign=bottom;rounded=0;exitX=0.469;exitY=-0.008;exitDx=0;exitDy=0;exitPerimeter=0;" edge="1" parent="1" source="ML4pTHdLRo7F1oKbEQ7r-15">
          <mxGeometry x="-1" y="3" relative="1" as="geometry">
            <mxPoint x="254" y="239" as="sourcePoint" />
            <mxPoint x="400" y="300" as="targetPoint" />
          </mxGeometry>
        </mxCell>
        <mxCell id="zeNMsyUqRh3NsVoOt58o-10" value="" style="endArrow=open;html=1;endSize=12;startArrow=diamondThin;startSize=14;startFill=0;edgeStyle=orthogonalEdgeStyle;align=left;verticalAlign=bottom;rounded=0;exitX=0.469;exitY=-0.008;exitDx=0;exitDy=0;exitPerimeter=0;" edge="1" parent="1">
          <mxGeometry x="-1" y="3" relative="1" as="geometry">
            <mxPoint x="271" y="390" as="sourcePoint" />
            <mxPoint x="148" y="250" as="targetPoint" />
            <Array as="points">
              <mxPoint x="271" y="330" />
              <mxPoint x="148" y="330" />
            </Array>
          </mxGeometry>
        </mxCell>
        <mxCell id="zeNMsyUqRh3NsVoOt58o-11" value="" style="endArrow=open;html=1;endSize=12;startArrow=diamondThin;startSize=14;startFill=0;edgeStyle=orthogonalEdgeStyle;align=left;verticalAlign=bottom;rounded=0;exitX=0.469;exitY=-0.008;exitDx=0;exitDy=0;exitPerimeter=0;entryX=0.458;entryY=1.035;entryDx=0;entryDy=0;entryPerimeter=0;" edge="1" parent="1" target="ML4pTHdLRo7F1oKbEQ7r-14">
          <mxGeometry x="-1" y="3" relative="1" as="geometry">
            <mxPoint x="523" y="390" as="sourcePoint" />
            <mxPoint x="690" y="260" as="targetPoint" />
            <Array as="points">
              <mxPoint x="523" y="330" />
              <mxPoint x="680" y="330" />
              <mxPoint x="680" y="260" />
              <mxPoint x="682" y="260" />
            </Array>
          </mxGeometry>
        </mxCell>
      </root>
    </mxGraphModel>
  </diagram>
</mxfile>
